<?xml version="1.0" standalone="no"?>
<!DOCTYPE svg PUBLIC "-//W3C//DTD SVG 20010904//EN"
 "http://www.w3.org/TR/2001/REC-SVG-20010904/DTD/svg10.dtd">
<svg version="1.0" xmlns="http://www.w3.org/2000/svg"
 width="372.000000pt" height="372.000000pt" viewBox="0 0 372.000000 372.000000"
 preserveAspectRatio="xMidYMid meet">
<metadata>
Created by potrace 1.14, written by Peter Selinger 2001-2017
</metadata>
<g transform="translate(0.000000,372.000000) scale(0.100000,-0.100000)"
fill="#000000" stroke="none">
<path d="M1838 3433 c18 -2 45 -2 60 0 15 2 0 4 -33 4 -33 0 -45 -2 -27 -4z"/>
<path d="M2140 3356 c0 -2 8 -10 18 -17 15 -13 16 -12 3 4 -13 16 -21 21 -21
13z"/>
<path d="M2755 2750 c319 -319 582 -580 585 -580 3 0 -256 261 -575 580 -319
319 -582 580 -585 580 -3 0 256 -261 575 -580z"/>
<path d="M965 2748 l-560 -563 563 560 c522 520 566 565 559 565 -1 0 -254
-253 -562 -562z"/>
<path d="M1740 3205 c-46 -22 -145 -116 -627 -598 -639 -639 -623 -619 -623
-752 0 -135 -13 -119 631 -762 637 -635 614 -616 744 -617 129 0 106 -19 748
622 646 645 632 628 631 757 -1 132 14 113 -631 756 -387 386 -591 582 -618
595 -26 12 -68 20 -120 22 -69 2 -87 -1 -135 -23z m594 -686 c75 -23 74 -17
31 -114 l-24 -53 -47 14 c-64 19 -107 18 -135 -5 l-24 -19 -5 -439 -5 -438
-75 0 -75 0 0 450 0 450 24 48 c55 113 183 153 335 106z m-576 -741 c-3 -442
-4 -454 -25 -493 -45 -84 -116 -125 -217 -125 -57 0 -161 23 -178 38 -4 4 7
39 23 78 l30 71 37 -13 c40 -14 120 -18 138 -6 32 21 34 53 34 476 l0 426 80
0 81 0 -3 -452z"/>
<path d="M3441 1914 c0 -11 3 -14 6 -6 3 7 2 16 -1 19 -3 4 -6 -2 -5 -13z"/>
<path d="M283 1850 c0 -36 2 -50 4 -32 2 17 2 47 0 65 -2 17 -4 3 -4 -33z"/>
<path d="M3442 1800 c0 -14 2 -19 5 -12 2 6 2 18 0 25 -3 6 -5 1 -5 -13z"/>
<path d="M3155 1358 l-190 -193 193 190 c178 176 197 195 189 195 -1 0 -88
-87 -192 -192z"/>
<path d="M965 960 c319 -319 582 -580 585 -580 3 0 -256 261 -575 580 -319
319 -582 580 -585 580 -3 0 256 -261 575 -580z"/>
<path d="M2755 958 l-200 -203 203 200 c188 186 207 205 199 205 -1 0 -92 -91
-202 -202z"/>
<path d="M2355 558 l-190 -193 193 190 c178 176 197 195 189 195 -1 0 -88 -87
-192 -192z"/>
<path d="M1798 273 c7 -3 16 -2 19 1 4 3 -2 6 -13 5 -11 0 -14 -3 -6 -6z"/>
<path d="M1918 273 c7 -3 16 -2 19 1 4 3 -2 6 -13 5 -11 0 -14 -3 -6 -6z"/>
</g>
</svg>
