<svg width="480" height="480" viewBox="0 0 480 480" fill="none" xmlns="http://www.w3.org/2000/svg">
<rect width="480" height="480" rx="240" fill="#F2F3F4"/>
<path d="M220.32 128.719H228.23V277.254C228.23 297.859 222.615 314.314 211.385 326.619C200.154 338.826 185.262 344.93 166.707 344.93C146.785 344.93 131.551 339.607 121.004 328.963C110.457 318.318 105.184 303.084 105.184 283.26H113.094C113.094 300.643 117.537 313.973 126.424 323.25C135.408 332.43 148.836 337.02 166.707 337.02C182.332 337.02 195.076 331.795 204.939 321.346C214.9 310.896 220.027 296.688 220.32 278.719V128.719Z" fill="black"/>
<path d="M262.338 229.793L228.207 261.287V342H220.297V128.719H228.207V252.059L263.363 217.635L351.84 128.719H363.266L268.197 224.373L370.59 342H360.336L262.338 229.793Z" fill="black"/>
</svg>
