<?xml version="1.0" standalone="no"?>
<!DOCTYPE svg PUBLIC "-//W3C//DTD SVG 20010904//EN"
 "http://www.w3.org/TR/2001/REC-SVG-20010904/DTD/svg10.dtd">
<svg version="1.0" xmlns="http://www.w3.org/2000/svg"
 width="480.000000pt" height="480.000000pt" viewBox="0 0 480.000000 480.000000"
 preserveAspectRatio="xMidYMid meet">
<metadata>
Created by potrace 1.11, written by Peter Selinger 2001-2013
</metadata>
<g transform="translate(0.000000,480.000000) scale(0.100000,-0.100000)"
fill="#000000" stroke="none">
<path d="M2200 2718 c0 -881 0 -872 -66 -1007 -67 -135 -189 -231 -341 -267
-87 -21 -251 -14 -340 14 -191 60 -298 207 -319 438 l-7 74 -38 0 c-38 0 -39
-1 -39 -34 0 -51 28 -201 47 -248 25 -65 78 -143 129 -192 142 -136 436 -185
667 -110 102 34 224 133 286 234 l21 35 0 -137 0 -138 40 0 40 0 0 403 0 403
172 157 c163 150 173 157 188 140 9 -10 230 -262 490 -560 l473 -543 49 0 49
0 -20 28 c-11 15 -241 279 -510 587 l-489 560 476 478 477 477 -60 0 -60 0
-617 -617 -618 -618 0 618 0 617 -40 0 -40 0 0 -792z"/>
</g>
</svg>
